<?xml version="1.0" encoding="utf-8"?>
<svg viewBox="31.9933 158.0293 330.7002 105.0021" xmlns="http://www.w3.org/2000/svg">
  <defs>
    <linearGradient gradientUnits="userSpaceOnUse" x1="2011.588" y1="1538.761" x2="2011.588" y2="3429.894" id="gradient-0" gradientTransform="matrix(0.999984, 0.005547, -0.005723, 1.00565, 19.661265, -30.538834)">
      <stop offset="0" style="stop-color: rgb(239, 102, 60);"/>
      <stop offset="1" style="stop-color: rgb(239, 187, 166);"/>
    </linearGradient>
    <linearGradient gradientUnits="userSpaceOnUse" x1="216.044" y1="158.298" x2="216.044" y2="262.724" id="gradient-1" gradientTransform="matrix(0.013745, -0.999906, 2.682033, 0.036865, -352.485047, 423.345844)">
      <stop offset="0" style="stop-color: rgb(239, 102, 60);"/>
      <stop offset="1" style="stop-color: rgb(159, 159, 159);"/>
    </linearGradient>
  </defs>
  <path d="M 2086 3422 C 2083 3417 2092 3392 2105 3367 C 2135 3312 2136 3285 2112 3205 C 2095 3149 2091 3145 2037 3117 C 1956 3075 1820 2921 1834 2885 C 1837 2877 1851 2870 1867 2870 C 1892 2870 1889 2867 1845 2844 C 1750 2794 1680 2704 1680 2633 C 1680 2586 1728 2550 1790 2550 C 1873 2550 1841 2510 1706 2444 C 1635 2410 1610 2374 1610 2309 C 1610 2251 1635 2231 1716 2226 C 1746 2224 1774 2220 1777 2217 C 1779 2214 1750 2193 1711 2171 C 1624 2120 1600 2091 1600 2035 C 1600 1983 1624 1958 1677 1954 C 1721 1951 1721 1945 1680 1888 C 1648 1844 1641 1795 1662 1757 C 1688 1708 1733 1698 1795 1727 C 1814 1736 1833 1741 1836 1737 C 1840 1733 1835 1711 1826 1687 C 1804 1628 1806 1597 1835 1566 C 1890 1507 1980 1550 1980 1636 C 1980 1660 1983 1680 1986 1680 C 1989 1680 2006 1669 2024 1655 C 2082 1611 2151 1631 2180 1700 C 2190 1725 2190 1739 2181 1771 C 2166 1819 2172 1831 2209 1824 C 2248 1816 2279 1835 2296 1877 C 2317 1926 2300 1970 2237 2037 C 2209 2066 2189 2092 2192 2095 C 2194 2098 2222 2095 2254 2089 C 2325 2074 2355 2086 2376 2135 C 2405 2205 2398 2223 2305 2317 C 2258 2364 2220 2411 2220 2421 C 2220 2444 2221 2444 2267 2425 C 2374 2380 2441 2438 2419 2556 C 2408 2614 2374 2668 2325 2705 C 2284 2737 2279 2760 2315 2760 C 2371 2760 2367 2836 2304 2961 C 2268 3034 2201 3115 2171 3125 C 2156 3130 2154 3138 2161 3189 C 2173 3277 2185 3297 2240 3331 C 2300 3368 2296 3379 2214 3410 C 2158 3431 2095 3436 2086 3422 Z" style="stroke-linejoin: round; fill: url('#gradient-0');" transform="matrix(0.04446300119161606, 0, 0, -0.04503500089049339, -39.14751052856445, 319.1771240234375)"/>
  <path d="M 131.295 234.291 L 130.755 239.781 Q 128.235 240.861 124.635 241.671 Q 121.035 242.481 117.345 242.886 Q 113.655 243.291 110.775 243.291 Q 103.485 243.291 97.275 240.816 Q 91.065 238.341 86.43 233.931 Q 81.795 229.521 79.185 223.536 Q 76.575 217.551 76.575 210.531 Q 76.575 203.511 79.185 197.526 Q 81.795 191.541 86.43 187.131 Q 91.065 182.721 97.275 180.246 Q 103.485 177.771 110.775 177.771 Q 113.745 177.771 117.435 178.221 Q 121.125 178.671 124.635 179.436 Q 128.145 180.201 130.575 181.191 L 130.125 186.231 L 129.585 186.231 Q 126.255 183.171 121.215 181.551 Q 116.175 179.931 110.775 179.931 Q 102.675 179.931 96.51 183.756 Q 90.345 187.581 86.88 194.466 Q 83.415 201.351 83.415 210.531 Q 83.415 219.801 86.88 226.641 Q 90.345 233.481 96.465 237.306 Q 102.585 241.131 110.775 241.131 Q 116.895 241.131 122.16 239.151 Q 127.425 237.171 130.755 234.291 Z" style="fill: url('#gradient-1'); line-height: 22.2847px; paint-order: fill; stroke-linejoin: round;"/>
  <path d="M 143.187 242.031 L 143.187 179.031 L 149.307 179.031 L 149.307 208.191 L 187.107 208.191 L 187.107 179.031 L 193.227 179.031 L 193.227 242.031 L 187.107 242.031 L 187.107 210.351 L 149.307 210.351 L 149.307 242.031 Z" style="fill: url('#gradient-1'); line-height: 22.2847px; paint-order: fill; stroke-linejoin: round;"/>
  <path d="M 201.157 242.031 L 225.367 179.031 L 230.947 179.031 L 255.157 242.031 L 248.587 242.031 L 237.427 212.511 L 216.997 212.511 L 207.727 242.031 Z M 225.997 183.711 L 217.627 210.351 L 236.617 210.351 L 226.537 183.711 Z" style="fill: url('#gradient-1'); line-height: 22.2847px; paint-order: fill; stroke-linejoin: round;"/>
  <path d="M 272.638 242.031 L 272.638 180.831 Q 271.288 180.831 267.058 181.371 L 249.418 183.621 L 249.418 179.031 L 301.978 179.031 L 301.978 183.621 L 284.338 181.371 Q 280.108 180.831 278.758 180.831 L 278.758 242.031 Z" style="fill: url('#gradient-1'); line-height: 22.2847px; paint-order: fill; stroke-linejoin: round;"/>
  <path d="M 310.443 242.031 L 310.443 179.031 L 316.563 179.031 L 316.563 242.031 Z" style="fill: url('#gradient-1'); line-height: 22.2847px; paint-order: fill; stroke-linejoin: round;"/>
  <path d="M 333.866 242.031 L 333.866 179.031 L 361.316 179.031 L 361.316 183.441 L 345.566 181.371 Q 341.426 180.831 339.986 180.831 L 339.986 208.281 Q 341.156 208.281 345.566 208.011 L 360.326 207.111 L 360.326 211.251 L 345.566 210.351 Q 341.156 210.081 339.986 210.081 L 339.986 240.231 Q 341.606 240.231 345.656 239.691 L 361.586 237.621 L 361.586 242.031 Z" style="fill: url('#gradient-1'); line-height: 22.2847px; paint-order: fill; stroke-linejoin: round;"/>
</svg>